<?xml version="1.0" encoding="UTF-8"?>
<svg width="381px" height="326px" viewBox="0 0 381 326" version="1.1" xmlns="http://www.w3.org/2000/svg" xmlns:xlink="http://www.w3.org/1999/xlink">
    <!-- Generator: Sketch 58 (84663) - https://sketch.com -->
    <title>Group 12</title>
    <desc>Created with Sketch.</desc>
    <g id="Page-1" stroke="none" stroke-width="1" fill="none" fill-rule="evenodd">
        <g id="Business-Case" transform="translate(-420.000000, -836.000000)">
            <g id="Group-12" transform="translate(415.000000, 831.000000)">
                <g id="Group-14">
                    <g id="Group-9" transform="translate(0.100000, 0.000000)">
                        <rect id="Rectangle" fill="#5FC9D7" transform="translate(34.301750, 34.301750) rotate(45.000000) translate(-34.301750, -34.301750) " x="-1.60825004" y="21.70175" width="71.82" height="25.2" rx="12.6"></rect>
                        <rect id="Rectangle-Copy-14" fill="#F7C407" transform="translate(40.487102, 80.190216) rotate(45.000000) translate(-40.487102, -80.190216) " x="4.57710223" y="72.9452159" width="71.82" height="14.49" rx="7.245"></rect>
                        <polygon id="Polygon" fill="#F7C407" points="45.99 300.69 61.11 315.81 45.99 330.93 30.87 315.81"></polygon>
                        <circle id="Oval" fill="#5FC9D7" cx="359.1" cy="299.88" r="25.83"></circle>
                        <polygon id="Polygon" fill="#F7C407" points="185.86 12.59 193.42 20.15 185.86 27.71 178.3 20.15"></polygon>
                    </g>
                    <g id="Group-11" transform="translate(295.100000, 51.000000)">
                        <rect id="Rectangle" fill="#002060" x="0" y="0" width="16.8" height="4.8" rx="2.4"></rect>
                        <rect id="Rectangle-Copy-37" fill="#A2A8B8" x="19.2" y="-2.26485497e-14" width="9.6" height="4.8" rx="2.4"></rect>
                        <rect id="Rectangle-Copy-38" fill="#A2A8B8" x="31.2" y="-2.26485497e-14" width="9.6" height="4.8" rx="2.4"></rect>
                        <rect id="Rectangle-Copy-39" fill="#A2A8B8" x="43.2" y="-2.26485497e-14" width="9.6" height="4.8" rx="2.4"></rect>
                    </g>
                </g>
                <g id="Group-therapy-cuate" transform="translate(48.000000, 92.000000)" fill-rule="nonzero">
                    <g id="freepik--background-complete--inject-90" transform="translate(0.968000, 0.000000)">
                        <path d="M100.468722,91.9309615 L35.2206806,91.9309615 L35.2206806,0.817960013 L100.468722,0.817960013 L100.468722,91.9309615 Z M37.1566806,89.9949615 L98.5327216,89.9949615 L98.5327216,2.75396004 L37.1566806,2.75396004 L37.1566806,89.9949615 Z" id="Shape" fill="#EBEBEB"></path>
                        <rect id="Rectangle" fill="#EBEBEB" x="66.8791211" y="3.25732005" width="1.93600003" height="87.7056414"></rect>
                        <rect id="Rectangle" fill="#EBEBEB" x="33.4637605" y="4.72868008" width="68.7570411" height="2.69588004"></rect>
                        <rect id="Rectangle" fill="#EBEBEB" x="33.4637605" y="7.76336013" width="68.7570411" height="2.69588004"></rect>
                        <rect id="Rectangle" fill="#EBEBEB" x="33.4637605" y="10.7932002" width="68.7570411" height="2.69588004"></rect>
                        <rect id="Rectangle" fill="#EBEBEB" x="33.4637605" y="13.8278802" width="68.7570411" height="2.69588004"></rect>
                        <rect id="Rectangle" fill="#EBEBEB" x="33.4637605" y="16.8625603" width="68.7570411" height="2.69588004"></rect>
                        <rect id="Rectangle" fill="#EBEBEB" x="33.4637605" y="19.8924003" width="68.7570411" height="2.69588004"></rect>
                        <rect id="Rectangle" fill="#EBEBEB" x="33.4637605" y="22.9270804" width="68.7570411" height="2.69588004"></rect>
                        <rect id="Rectangle" fill="#EBEBEB" x="33.4637605" y="25.9617604" width="68.7570411" height="2.69588004"></rect>
                        <rect id="Rectangle" fill="#EBEBEB" x="33.4637605" y="28.9916005" width="68.7570411" height="2.69588004"></rect>
                        <rect id="Rectangle" fill="#263238" x="95.9917216" y="4.18176007" width="1" height="52.4607609"></rect>
                        <polygon id="Path" fill="#263238" points="97.0904016 58.897961 95.3770416 58.897961 95.8029616 56.4295609 96.6644816 56.4295609"></polygon>
                        <rect id="Rectangle" fill="#263238" x="97.7341216" y="4.18176007" width="1" height="65.6933211"></rect>
                        <polygon id="Path" fill="#263238" points="98.8376416 71.6900812 97.1194416 71.6900812 97.5502016 69.2216811 98.4068816 69.2216811"></polygon>
                        <rect id="Rectangle" fill="#DBDBDB" x="30.4629605" y="0.435600007" width="74.7683212" height="5.63860009"></rect>
                        <path d="M287.123325,91.9309615 L221.875284,91.9309615 L221.875284,0.817960013 L287.123325,0.817960013 L287.123325,91.9309615 Z M223.811284,89.9949615 L285.187325,89.9949615 L285.187325,2.75396004 L223.811284,2.75396004 L223.811284,89.9949615 Z" id="Shape" fill="#EBEBEB"></path>
                        <rect id="Rectangle" fill="#EBEBEB" x="253.528884" y="3.25732005" width="1.93600003" height="87.7056414"></rect>
                        <rect id="Rectangle" fill="#EBEBEB" x="220.118364" y="4.72868008" width="68.7570411" height="2.69588004"></rect>
                        <rect id="Rectangle" fill="#EBEBEB" x="220.118364" y="7.76336013" width="68.7570411" height="2.69588004"></rect>
                        <rect id="Rectangle" fill="#EBEBEB" x="220.118364" y="10.7932002" width="68.7570411" height="2.69588004"></rect>
                        <rect id="Rectangle" fill="#EBEBEB" x="220.118364" y="13.8278802" width="68.7570411" height="2.69588004"></rect>
                        <rect id="Rectangle" fill="#EBEBEB" x="220.118364" y="16.8625603" width="68.7570411" height="2.69588004"></rect>
                        <rect id="Rectangle" fill="#EBEBEB" x="220.118364" y="19.8924003" width="68.7570411" height="2.69588004"></rect>
                        <rect id="Rectangle" fill="#EBEBEB" x="220.118364" y="22.9270804" width="68.7570411" height="2.69588004"></rect>
                        <rect id="Rectangle" fill="#EBEBEB" x="220.118364" y="25.9617604" width="68.7570411" height="2.69588004"></rect>
                        <rect id="Rectangle" fill="#EBEBEB" x="220.118364" y="28.9916005" width="68.7570411" height="2.69588004"></rect>
                        <rect id="Rectangle" fill="#263238" x="282.641485" y="4.18176007" width="1" height="52.4607609"></rect>
                        <polygon id="Path" fill="#263238" points="283.745005 58.897961 282.026805 58.897961 282.457565 56.4295609 283.314245 56.4295609"></polygon>
                        <rect id="Rectangle" fill="#263238" x="284.388725" y="4.18176007" width="1" height="65.6933211"></rect>
                        <polygon id="Path" fill="#263238" points="285.487405 71.6900812 283.769205 71.6900812 284.199965 69.2216811 285.056645 69.2216811"></polygon>
                        <rect id="Rectangle" fill="#DBDBDB" x="217.112724" y="0.435600007" width="74.7683212" height="5.63860009"></rect>
                        <circle id="Oval" fill="#EBEBEB" opacity="0.19" cx="130.621922" cy="13.2422402" r="9.06048015"></circle>
                        <circle id="Oval" fill="#EBEBEB" opacity="0.19" transform="translate(130.610240, 14.726365) rotate(-76.640000) translate(-130.610240, -14.726365) " cx="130.61024" cy="14.7263648" r="6.71792011"></circle>
                        <polygon id="Path" fill="#EBEBEB" points="140.510042 14.7329602 134.251922 25.4003204 126.987082 25.4003204 120.728962 14.7329602"></polygon>
                        <polygon id="Path" fill="#EBEBEB" points="135.950762 28.9916005 125.288242 28.9916005 126.987082 25.4003204 134.251922 25.4003204"></polygon>
                        <polygon id="Path" fill="#C7C7C7" points="135.384482 23.4740004 134.251922 25.4003204 126.987082 25.4003204 126.130402 23.9434804"></polygon>
                        <circle id="Oval" fill="#EBEBEB" opacity="0.19" cx="161.172003" cy="13.2422402" r="9.06048015"></circle>
                        <circle id="Oval" fill="#EBEBEB" opacity="0.19" transform="translate(161.171678, 14.741519) rotate(-24.200000) translate(-161.171678, -14.741519) " cx="161.171678" cy="14.7415195" r="6.71792011"></circle>
                        <polygon id="Path" fill="#EBEBEB" points="171.064963 14.7329602 164.802003 25.4003204 157.542003 25.4003204 151.279042 14.7329602"></polygon>
                        <polygon id="Path" fill="#EBEBEB" points="166.505683 28.9916005 155.843163 28.9916005 157.542003 25.4003204 164.802003 25.4003204"></polygon>
                        <polygon id="Path" fill="#C7C7C7" points="165.934563 23.4740004 164.806843 25.4003204 157.537163 25.4003204 156.680483 23.9434804"></polygon>
                        <circle id="Oval" fill="#EBEBEB" opacity="0.19" cx="191.722083" cy="13.2422402" r="9.06048015"></circle>
                        <circle id="Oval" fill="#EBEBEB" opacity="0.19" transform="translate(191.722173, 14.735351) rotate(-45.000000) translate(-191.722173, -14.735351) " cx="191.722173" cy="14.7353511" r="6.71792011"></circle>
                        <polygon id="Path" fill="#EBEBEB" points="201.615043 14.7329602 195.356923 25.4003204 188.092083 25.4003204 181.833963 14.7329602"></polygon>
                        <polygon id="Path" fill="#EBEBEB" points="197.055763 28.9916005 186.393243 28.9916005 188.092083 25.4003204 195.356923 25.4003204"></polygon>
                        <polygon id="Path" fill="#C7C7C7" points="196.489483 23.4740004 195.356923 25.4003204 188.092083 25.4003204 187.235403 23.9434804"></polygon>
                        <path d="M7.70044013,19.0454003 L14.0360002,18.9098803 L17.2739603,18.8760003 C18.3532803,18.8760003 19.4374403,18.8760003 20.5167603,18.8760003 L20.7297203,18.8760003 L20.7297203,19.0938003 L20.7587603,24.5097604 L20.7587603,24.7517604 L20.5167603,24.7517604 L14.1086002,24.6840004 C11.9741602,24.6840004 9.83488016,24.6307604 7.70044013,24.6065604 L7.56492012,24.6065604 L7.56492012,24.4758804 C7.56492012,23.5562804 7.60364012,22.6463604 7.62784012,21.7412804 L7.70044013,19.0454003 Z M7.70044013,19.0454003 L7.76820013,21.7800004 C7.79240013,22.6802404 7.82144013,23.5708004 7.83112013,24.4565204 L7.70044013,24.3258404 C9.83488016,24.3258404 11.9741602,24.2484004 14.1086002,24.2484004 L20.5167603,24.2000004 L20.2747603,24.4420004 L20.2747603,19.0260403 L20.4925603,19.2438403 C19.4374403,19.2438403 18.3823203,19.2438403 17.3223603,19.2148003 L14.1376402,19.1615603 L7.70044013,19.0454003 Z" id="Shape" fill="#EBEBEB"></path>
                        <path d="M14.8491202,12.2161602 L21.2040403,12.1000002 L24.4274804,12.0467602 C25.5019604,12.0467602 26.5861204,12.0467602 27.6654404,12.0467602 L27.8784005,12.0467602 L27.8784005,12.2645602 L27.8784005,17.6805203 L27.8784005,17.9225203 L27.6364004,17.9225203 L21.2282403,17.8934803 C19.0938003,17.8934803 16.9545203,17.8402403 14.8200802,17.8160403 L14.7136002,17.8160403 L14.7136002,17.6853603 C14.7136002,16.7657603 14.7523202,15.8558403 14.7765202,14.9507602 L14.8491202,12.2161602 Z M14.8491202,12.2161602 L14.9168802,14.9556002 C14.9410802,15.8558403 14.9701202,16.7464003 14.9798002,17.6321203 L14.8491202,17.5014403 C16.9835603,17.5014403 19.1228403,17.4240003 21.2572803,17.4240003 L27.6654404,17.3901203 L27.4234404,17.6321203 L27.4524804,12.2161602 L27.6654404,12.4339602 C26.6103204,12.4339602 25.5552004,12.4339602 24.5000804,12.4049202 L21.2960003,12.3516802 L14.8491202,12.2161602 Z" id="Shape" fill="#EBEBEB"></path>
                        <path d="M132.538562,131.710922 L138.888642,131.575402 L142.112082,131.522162 C143.191402,131.497962 144.270722,131.522162 145.354882,131.497962 L145.567842,131.497962 L145.567842,131.715762 L145.596882,137.131722 L145.596882,137.373722 L145.354882,137.373722 L138.946722,137.344682 C136.807442,137.344682 134.673002,137.291442 132.538562,137.262402 L132.403042,137.262402 L132.403042,137.131722 C132.403042,136.212122 132.446602,135.297362 132.465962,134.397122 L132.538562,131.710922 Z M132.538562,131.710922 L132.606322,134.445522 C132.606322,135.350602 132.659562,136.241162 132.669242,137.126882 L132.538562,136.996202 C134.673002,136.972002 136.807442,136.918762 138.946722,136.913922 L145.354882,136.884882 L145.112882,137.126882 L145.137082,131.710922 L145.354882,131.928722 C144.294922,131.928722 143.244642,131.928722 142.184682,131.899682 L138.999962,131.846442 L132.538562,131.710922 Z" id="Shape" fill="#EBEBEB"></path>
                        <path d="M139.687242,124.872002 L146.037322,124.736482 L149.260762,124.683242 C150.340082,124.659042 151.424242,124.683242 152.503562,124.659042 L152.716522,124.659042 L152.716522,124.872002 L152.745562,130.287962 L152.745562,130.529962 L152.503562,130.529962 L146.095402,130.500922 C143.956122,130.500922 141.821682,130.447682 139.687242,130.418642 L139.551722,130.418642 L139.551722,130.287962 C139.551722,129.368362 139.595282,128.453602 139.619482,127.553362 L139.687242,124.872002 Z M139.687242,124.872002 L139.755002,127.611442 C139.755002,128.511682 139.808242,129.402242 139.817922,130.287962 L139.687242,130.157282 C141.821682,130.133082 143.956122,130.079842 146.095402,130.075002 L152.503562,130.045962 L152.261562,130.287962 L152.285762,124.872002 L152.503562,125.089802 C151.448442,125.089802 150.393322,125.089802 149.333362,125.060762 L146.168002,125.017202 L139.687242,124.872002 Z" id="Shape" fill="#EBEBEB"></path>
                        <path d="M0.551760009,12.2161602 L6.90184011,12.1000002 L10.1252802,12.0467602 C11.2046002,12.0467602 12.2887602,12.0467602 13.3680802,12.0467602 L13.5810402,12.0467602 L13.5810402,12.2645602 L13.6100802,17.6805203 L13.6100802,17.9225203 L13.3680802,17.9225203 L6.95992011,17.8934803 C4.82064008,17.8934803 2.68620004,17.8402403 0.551760009,17.8160403 L0.416240007,17.8160403 L0.416240007,17.6853603 C0.416240007,16.7657603 0.459800007,15.8558403 0.479160008,14.9507602 L0.551760009,12.2161602 Z M0.551760009,12.2161602 L0.61952001,14.9556002 C0.61952001,15.8558403 0.672760011,16.7464003 0.682440011,17.6321203 L0.551760009,17.5014403 C2.68620004,17.5014403 4.82064008,17.4240003 6.95992011,17.4240003 L13.3680802,17.3901203 L13.1260802,17.6321203 L13.1260802,12.2161602 L13.3438802,12.4339602 C12.2887602,12.4339602 11.2336402,12.4339602 10.1736802,12.4049202 L6.98896011,12.3516802 L0.551760009,12.2161602 Z" id="Shape" fill="#EBEBEB"></path>
                        <path d="M178.915443,49.6390408 L172.565363,49.7745608 L169.341923,49.8278008 C168.262603,49.8520008 167.178443,49.8278008 166.099123,49.8568408 L165.886163,49.8568408 L165.886163,49.6390408 L165.857123,44.2230807 L165.857123,43.9810807 L166.099123,43.9810807 L172.507283,44.0101207 C174.646563,44.0101207 176.781003,44.0682007 178.915443,44.0924007 L179.050963,44.0924007 L179.050963,44.2230807 C179.050963,45.1426807 179.007403,46.0574407 178.983203,46.9625208 L178.915443,49.6390408 Z M178.915443,49.6390408 L178.847683,46.9044408 C178.847683,45.9993607 178.794443,45.1088007 178.784763,44.2230807 L178.915443,44.3537607 C176.781003,44.3828007 174.646563,44.4312007 172.507283,44.4360407 L166.099123,44.4650807 L166.341123,44.2230807 L166.316923,49.6390408 L166.099123,49.4260808 C167.154243,49.4260808 168.209363,49.4260808 169.269323,49.4260808 L172.454043,49.4793208 L178.915443,49.6390408 Z" id="Shape" fill="#EBEBEB"></path>
                        <path d="M314.643565,139.522682 L308.293485,139.653362 L305.070045,139.711442 C303.990725,139.711442 302.906565,139.711442 301.827245,139.711442 L301.614285,139.711442 L301.614285,139.498482 L301.585245,134.082522 L301.585245,133.835682 L301.827245,133.835682 L308.235405,133.864722 C310.369845,133.864722 312.509125,133.917962 314.643565,133.942162 L314.779085,133.942162 L314.779085,134.072842 C314.779085,134.987602 314.740365,135.902362 314.716165,136.807442 L314.643565,139.522682 Z M314.643565,139.522682 L314.575805,136.783242 C314.551605,135.883002 314.522565,134.992442 314.512885,134.106722 L314.643565,134.237402 C312.509125,134.237402 310.369845,134.314842 308.235405,134.314842 L301.827245,134.348722 L302.069245,134.106722 L302.045045,139.522682 L301.827245,139.304882 C302.882365,139.304882 303.937485,139.304882 304.997445,139.329082 L308.182165,139.387162 L314.643565,139.522682 Z" id="Shape" fill="#EBEBEB"></path>
                        <path d="M321.792245,146.351922 L315.442165,146.482602 L312.218725,146.540682 C311.139405,146.540682 310.055245,146.540682 308.975925,146.564882 L308.762965,146.564882 L308.762965,146.351922 L308.733925,140.935962 L308.733925,140.689122 L308.975925,140.689122 L315.384085,140.718162 C317.523365,140.718162 319.657805,140.771402 321.792245,140.795602 L321.927765,140.795602 L321.927765,140.926282 C321.927765,141.841042 321.884205,142.755802 321.864845,143.660882 L321.792245,146.351922 Z M321.792245,146.351922 L321.724485,143.612482 C321.724485,142.712242 321.671245,141.821682 321.661565,140.935962 L321.792245,141.066642 C319.657805,141.090842 317.523365,141.144082 315.384085,141.144082 L308.975925,141.173122 L309.217925,140.935962 L309.217925,146.351922 L309.000125,146.134122 C310.055245,146.134122 311.110365,146.134122 312.170325,146.158322 L315.355045,146.216402 L321.792245,146.351922 Z" id="Shape" fill="#EBEBEB"></path>
                        <path d="M20.6280803,146.351922 L14.2731602,146.482602 L11.0497202,146.540682 C9.97040016,146.540682 8.89108014,146.540682 7.81176013,146.564882 L7.59396012,146.564882 L7.59396012,146.351922 L7.59396012,140.935962 L7.59396012,140.689122 L7.84080013,140.689122 L14.2489602,140.718162 C16.3834003,140.718162 18.5178403,140.771402 20.6571203,140.795602 L20.7878003,140.795602 L20.7878003,140.926282 C20.7878003,141.841042 20.7442403,142.755802 20.7248803,143.660882 L20.6280803,146.351922 Z M20.6280803,146.351922 L20.5554803,143.612482 C20.5554803,142.712242 20.5022403,141.821682 20.4925603,140.935962 L20.6280803,141.066642 C18.4888003,141.090842 16.3543603,141.144082 14.2199202,141.144082 L7.81176013,141.173122 L8.04892013,140.935962 L8.02472013,146.351922 L7.81176013,146.134122 C8.86688014,146.134122 9.91716016,146.134122 10.9771202,146.158322 L14.1618402,146.216402 L20.6280803,146.351922 Z" id="Shape" fill="#EBEBEB"></path>
                        <path d="M301.774005,12.2161602 L308.124085,12.1000002 L311.347525,12.0467602 C312.426845,12.0467602 313.511005,12.0467602 314.590325,12.0467602 L314.803285,12.0467602 L314.803285,12.2645602 L314.832325,17.6805203 L314.832325,17.9225203 L314.600005,17.9225203 L308.191845,17.8934803 C306.052565,17.8934803 303.918125,17.8402403 301.783685,17.8160403 L301.648165,17.8160403 L301.648165,17.6853603 C301.648165,16.7657603 301.691725,15.8558403 301.715925,14.9507602 L301.774005,12.2161602 Z M301.774005,12.2161602 L301.841765,14.9556002 C301.841765,15.8558403 301.895005,16.7464003 301.904685,17.6321203 L301.774005,17.5014403 C303.908445,17.5014403 306.042885,17.4240003 308.182165,17.4240003 L314.600005,17.3901203 L314.358005,17.6321203 L314.358005,12.2161602 L314.575805,12.4339602 C313.520685,12.4339602 312.465565,12.4339602 311.405605,12.4049202 L308.220885,12.3516802 L301.774005,12.2161602 Z" id="Shape" fill="#EBEBEB"></path>
                    </g>
                    <g id="freepik--Floor--inject-90" transform="translate(0.000000, 150.040002)" fill="#263238">
                        <polygon id="Path" points="0.251680004 0.401720007 40.7237607 0.280720005 81.1958413 0.242000004 162.140003 0.159720003 243.084164 0.242000004 283.556245 0.280720005 324.028325 0.401720007 283.556245 0.517880008 243.084164 0.561440009 162.140003 0.64372001 81.1958413 0.561440009 40.7237607 0.517880008"></polygon>
                    </g>
                    <g id="freepik--Shadow--inject-90" transform="translate(15.324000, 180.788003)" fill="#EBEBEB">
                        <ellipse id="Oval" cx="129.30008" cy="12.8055602" rx="129" ry="12.1308986"></ellipse>
                    </g>
                    <g id="freepik--Plant--inject-90" transform="translate(140.360002, 49.368001)">
                        <path d="M20.4586803,23.3094404 C20.4586803,23.3094404 9.56384016,21.7800004 12.1000002,8.63456014 C12.1000002,8.63456014 24.2822804,11.3691602 20.4586803,23.3094404 Z" id="Path" fill="#FFC727"></path>
                        <path d="M20.4586803,23.3094404 C20.4586803,23.3094404 9.56384016,21.7800004 12.1000002,8.63456014 C12.1000002,8.63456014 24.2822804,11.3691602 20.4586803,23.3094404 Z" id="Path" fill="#000000" opacity="0.1"></path>
                        <path d="M19.9069203,20.5651603 C19.6939603,19.8972403 19.4229203,19.2486803 19.1664003,18.6049603 L19.1373603,18.3581203 L19.0938003,17.8112003 C19.0647603,17.4191603 19.0357203,17.0271203 19.0163603,16.6350803 C18.9679603,15.8510003 18.9195603,15.0620802 18.9050403,14.2780002 C18.9106929,14.2638582 18.9062144,14.2476825 18.8940934,14.2384614 C18.8819724,14.2292403 18.8651882,14.2292403 18.8530672,14.2384614 C18.8409462,14.2476825 18.8364677,14.2638582 18.8421203,14.2780002 C18.8421203,15.0669202 18.8421203,15.8510003 18.8421203,16.6399203 C18.8421203,17.0319603 18.8808403,17.4240003 18.9050403,17.8160403 C18.9050403,17.9031603 18.9050403,17.9902803 18.9050403,18.0774003 C18.2932274,16.7693043 17.562544,15.520176 16.7222003,14.3457602 C16.3446803,13.8230402 15.9526403,13.3196802 15.5315603,12.8356802 C15.1104802,12.3516802 14.6361602,11.8676802 14.1957202,11.3836802 C14.1715202,11.3498002 14.1231202,11.3836802 14.1521602,11.4320802 C14.9333261,12.2974842 15.6362623,13.2304134 16.2527203,14.2199202 C16.5818403,14.7039202 16.8964403,15.2363202 17.1916803,15.7590403 L17.0900403,15.7203203 L16.7028403,15.5606003 C16.4076003,15.4492803 16.1123603,15.3331202 15.8122803,15.2266402 L14.0602002,14.5732402 C14.0263202,14.5732402 14.0021202,14.6216402 14.0360002,14.6361602 C14.6168002,14.8636402 15.1879202,15.1201602 15.7638803,15.3573202 L16.6060403,15.7203203 L17.0319603,15.8945603 C17.122704,15.9398221 17.2185861,15.9739496 17.3175203,15.9962003 C17.5401603,16.3930803 17.7579603,16.7851203 17.9564003,17.1916803 C18.4625575,18.2094842 18.907027,19.2568159 19.2874003,20.3280003 C19.3164403,20.4054403 19.3406403,20.4780403 19.3648403,20.5554803 C19.0803054,20.3877084 18.782447,20.2436355 18.4742803,20.1247203 L17.3465603,19.6116803 C16.5818403,19.2583603 15.8219603,18.9050403 15.0911202,18.4888003 C15.0805628,18.4788978 15.0648804,18.4767962 15.0520882,18.4835696 C15.0392959,18.490343 15.0322199,18.5044952 15.0344764,18.518793 C15.036733,18.5330909 15.0478237,18.5443759 15.0620802,18.5468803 C15.8074403,18.9582803 16.5431203,19.3938803 17.2933203,19.8004403 C17.6660003,20.0037203 18.0435203,20.2021603 18.4258803,20.3860803 C18.7438013,20.5770106 19.0901977,20.715896 19.4519603,20.7974803 C19.8141032,21.7939377 20.0530365,22.8309404 20.1634403,23.8854004 C20.2844403,25.3712804 20.2699203,26.8716804 20.3086403,28.3624005 C20.3086403,28.3624005 20.3425203,28.3624005 20.3473603,28.3624005 C20.4538403,27.0072004 20.5167603,25.6471604 20.5216003,24.2871204 C20.5167112,23.0216085 20.3091904,21.765045 19.9069203,20.5651603 L19.9069203,20.5651603 Z" id="Path" fill="#263238"></path>
                        <path d="M18.2322803,12.8308402 C18.1251037,13.5986669 18.0878442,14.3746372 18.1209603,15.1492002 C18.1209603,15.1492002 18.1548403,15.1492002 18.1548403,15.1492002 C18.1984003,14.3796402 18.2080803,13.6149202 18.2952003,12.8502002 C18.3000403,12.8066402 18.2371203,12.7872802 18.2322803,12.8308402 Z" id="Path" fill="#263238"></path>
                        <path d="M15.1153202,13.4890802 C14.6290455,13.3032096 14.1608331,13.0731537 13.7165602,12.8018002 C13.6778402,12.8018002 13.6488002,12.8356802 13.6826802,12.8598802 C14.1192613,13.1546608 14.5971743,13.3830151 15.1008002,13.5374802 C15.1094461,13.540074 15.1188189,13.5378582 15.1253881,13.5316676 C15.1319572,13.5254769 15.1347247,13.5162519 15.1326481,13.5074676 C15.1305714,13.4986832 15.1239661,13.491674 15.1153202,13.4890802 L15.1153202,13.4890802 Z" id="Path" fill="#263238"></path>
                        <path d="M20.8120003,44.1843607 C20.8120003,42.9792007 20.7781203,41.7643607 20.7636003,40.5737207 C20.7636003,36.5758806 20.7103603,32.5780405 20.6377603,28.5802005 C20.5796803,25.4083871 20.505467,22.2365737 20.4151203,19.0647603 C20.414766,19.0471284 20.4057036,19.0308161 20.3909203,19.0212003 L20.3909203,16.4221203 C20.3909203,16.4221203 20.3618803,16.3882403 20.3376803,16.3930803 C20.3134803,16.3979203 20.2844403,16.3930803 20.2844403,16.4269603 L20.2844403,19.0308803 C20.2844403,19.0308803 20.2844403,19.0308803 20.2844403,19.0647603 C20.1247203,24.7130404 19.9795203,30.3613205 19.9456403,36.0047606 C19.9456403,37.1566806 19.9456403,38.3037606 19.9456403,39.4508406 C19.9069203,43.1324674 19.8924003,46.8157074 19.9020803,50.5005608 C19.9020803,51.0862008 19.9020803,51.6718408 19.9020803,52.2623208 C19.9020803,55.6503209 19.9359603,58.999601 19.9359603,62.368241 C19.9359603,62.552161 20.1392403,62.639281 20.3522003,62.648961 C20.5651603,62.658641 20.8362003,62.561841 20.8362003,62.353721 C20.8362003,58.636601 20.8604003,54.9243209 20.8604003,51.2217208 C20.8120003,48.8840008 20.8120003,46.5269208 20.8120003,44.1843607 Z" id="Path" fill="#263238"></path>
                        <path d="M16.2575603,40.5301607 C16.2575603,40.5301607 11.0206802,36.6581606 6.0451601,39.2717606 C1.06964002,41.8853607 0.295240005,52.0009608 0.295240005,52.0009608 C0.295240005,52.0009608 7.59396012,53.0464009 12.1919602,48.6710408 C16.6254003,44.4554007 16.2575603,40.5301607 16.2575603,40.5301607 Z" id="Path" fill="#FFC727"></path>
                        <path d="M17.6853603,40.7673207 C16.7218833,40.3872751 15.6794875,40.250949 14.6506802,40.3704407 C14.4377845,40.3348748 14.2227134,40.3138528 14.0069602,40.3075207 L13.2712802,40.2542807 L11.7418402,40.1478007 C10.7109202,40.0703607 9.67032016,40.0074407 8.63940014,39.9009606 C8.60552014,39.9009606 8.59584014,39.9638806 8.63940014,39.9687206 C9.66064016,40.0994007 10.6770402,40.2446007 11.6982802,40.3462407 C12.2258402,40.3994807 12.7534002,40.4527207 13.2809602,40.4914407 L13.6633202,40.5301607 C13.5084402,40.5624273 13.3471069,40.6011473 13.1793202,40.6463207 C12.3575698,40.8864801 11.5628202,41.2108677 10.8077202,41.6143207 C10.3914802,41.6869207 9.98492016,41.8030807 9.57836016,41.8998807 C8.92980015,42.0499207 8.28608013,42.2193207 7.64236012,42.3838807 C6.3742801,42.7178407 5.11588008,43.0905207 3.85264006,43.4583607 C3.80908006,43.4583607 3.82844006,43.5309607 3.85264006,43.5212807 C5.11104008,43.2115207 6.3791201,42.9308007 7.64236012,42.6258807 L9.48640015,42.1854407 L9.97040016,42.0741207 C8.56239698,42.9464195 7.30402659,44.039731 6.2436001,45.3120807 C5.22069843,46.5646684 4.35288956,47.9362614 3.65904006,49.3970408 C3.65904006,49.4309208 3.69292006,49.4696408 3.71228006,49.4309208 C4.57188602,47.9301309 5.62469868,46.5486194 6.84376011,45.3217607 C6.81956011,45.3895207 6.80020011,45.4572807 6.77600011,45.5298807 L6.48560011,46.4543208 C6.2920001,47.0738408 6.0935601,47.6885208 5.9096401,48.3080408 C5.9096401,48.3516008 5.9628801,48.3612808 5.9774001,48.3080408 C6.1952001,47.7127208 6.4033201,47.1077208 6.61628011,46.5075608 L6.92604011,45.6218407 L7.08576012,45.1620407 C7.08576012,45.1184807 7.11964012,45.0700807 7.13416012,45.0216807 C7.71934059,44.4550763 8.34012513,43.9264395 8.99272015,43.4390007 C9.85651645,42.8036517 10.7902741,42.2693799 11.7757202,41.8466407 C11.7757202,41.9337607 11.7418402,42.0257207 11.7224802,42.1128407 C11.6692402,42.3500007 11.6160002,42.5968407 11.5676002,42.8291607 C11.4659602,43.3131607 11.3691602,43.7971607 11.2723602,44.3198807 C11.0739202,45.3362807 10.9529202,46.3623608 10.7641602,47.3739208 C10.7641602,47.4174808 10.8174002,47.4320008 10.8270802,47.3739208 C11.0594002,46.3526808 11.3643202,45.3508007 11.5918002,44.3247207 C11.7031202,43.8165207 11.8192802,43.3034807 11.9257602,42.7904407 L12.1000002,42.1080007 C12.1312472,41.9754638 12.1554809,41.8413708 12.1726002,41.7062807 C12.2694002,41.6675607 12.3613602,41.6240007 12.4581602,41.5901207 C13.8327202,41.0819207 15.3621602,40.7092407 16.8141603,40.9899607 C18.2222709,41.2524097 19.405275,42.2028109 19.9650003,43.5212807 C20.0134003,43.6326007 20.1924803,43.5600007 20.1682803,43.4438407 C19.8123482,42.2081608 18.8908913,41.2148555 17.6853603,40.7673207 Z" id="Path" fill="#263238"></path>
                        <path d="M9.68000016,45.0846007 C9.52996015,45.7476807 9.38476015,46.4156008 9.23956015,47.0786808 C9.07370667,47.7150432 8.95081632,48.3618345 8.87172014,49.0146808 C8.87172014,49.0146808 8.90560014,49.0146808 8.91528014,49.0146808 C9.10416254,48.3793247 9.25288299,47.7327141 9.36056015,47.0786808 C9.48640015,46.4204408 9.61708016,45.7670407 9.74292016,45.1136407 C9.73808016,45.0604007 9.68000016,45.0458807 9.68000016,45.0846007 Z" id="Path" fill="#263238"></path>
                        <path d="M4.59800007,46.7737608 C3.93008006,47.1125608 3.28636005,47.4949208 2.58940004,47.7708008 C2.57525805,47.7651482 2.55908232,47.7696266 2.54986119,47.7817476 C2.54064007,47.7938687 2.54064007,47.8106529 2.54986119,47.8227739 C2.55908232,47.8348949 2.57525805,47.8393734 2.58940004,47.8337208 C3.27413169,47.5252513 3.94143944,47.1794792 4.58832007,46.7979608 C4.58832007,46.7979608 4.61252007,46.7640808 4.59800007,46.7737608 Z" id="Path" fill="#263238"></path>
                        <path d="M17.4240003,33.3960005 C17.4240003,33.3960005 11.0206802,33.8025605 8.04408013,29.5820805 C5.06748008,25.3616004 5.73540009,19.3261203 5.73540009,19.3261203 C5.73540009,19.3261203 12.4581602,20.1440803 15.1298402,23.1981204 C17.8015203,26.2521604 17.4240003,33.3960005 17.4240003,33.3960005 Z" id="Path" fill="#FFC727"></path>
                        <path d="M20.4393203,39.7170406 C20.2215203,39.0297606 19.9553203,38.3570006 19.6842803,37.6842406 C19.4132403,37.0114806 19.1712403,36.3968006 18.8905203,35.7482406 C18.3132549,34.4576512 17.666988,33.1990464 16.9545203,31.9778805 C16.5044003,31.1986405 16.0204003,30.4436005 15.5025203,29.6982405 C15.5025203,29.5869205 15.4686403,29.4707605 15.4492803,29.3594405 L15.3621602,28.7641205 C15.2992402,28.3575605 15.2266402,27.9558405 15.1588802,27.5492804 C15.0136802,26.6635604 14.8297602,25.7875204 14.6748802,24.9018004 C14.6748802,24.8582404 14.6022802,24.8630804 14.6071202,24.9018004 C14.7378002,25.7778404 14.8249202,26.6587204 14.9459202,27.5299204 C15.0088402,27.9606805 15.0620802,28.3914405 15.1298402,28.8173605 L15.2024402,29.3013605 C14.2462141,27.8667745 13.2104478,26.48683 12.1000002,25.1680004 C11.9499602,24.9937604 11.7902402,24.8195204 11.6160002,24.6452804 C11.6160002,24.5968804 11.5772802,24.5484804 11.5579202,24.5000804 C11.5095202,24.3790804 11.4611202,24.2580804 11.4175602,24.1322404 C11.3207602,23.8805604 11.2288002,23.6240404 11.1416802,23.3723604 C10.9577602,22.8690004 10.7964268,22.3608004 10.6576802,21.8477604 C10.6576802,21.8042004 10.5850802,21.8235604 10.5947602,21.8477604 C10.7254402,22.3753204 10.8609602,22.8980404 11.0158402,23.4159204 C11.0884402,23.6676004 11.1707202,23.8999204 11.2578402,24.1612804 C11.2718528,24.2040123 11.2880065,24.246012 11.3062402,24.2871204 C10.4834402,23.3917204 9.63160016,22.5350404 8.77008014,21.6832004 C8.74104014,21.6541604 8.69264014,21.6832004 8.72168014,21.7316004 C10.3778386,23.4622425 11.8957943,25.320039 13.2616002,27.2879204 C13.1067202,27.2395204 12.9421602,27.2008004 12.7776002,27.1669204 C12.2936002,27.0749604 11.7854002,27.0023604 11.2868802,26.9394404 C10.2462802,26.8087604 9.20568015,26.6732404 8.16508013,26.5135204 C8.15221307,26.5186634 8.14377482,26.5311236 8.14377482,26.5449804 C8.14377482,26.5588373 8.15221307,26.5712974 8.16508013,26.5764404 C9.15728015,26.7700404 10.1398002,26.9975204 11.1271602,27.2201604 C11.6111602,27.3266404 12.0564402,27.4186004 12.5259202,27.5105604 C12.9061643,27.5948874 13.2811078,27.7015524 13.6488002,27.8300005 C13.7504402,27.9800405 13.8617602,28.1252405 13.9634002,28.2752805 C14.4474002,28.9577205 14.8830002,29.6546805 15.3234402,30.3613205 L14.6700402,30.2306405 C14.1860402,30.1386805 13.6778402,30.0467205 13.1841602,29.9644405 C12.2161602,29.8047205 11.2481602,29.6353205 10.2801602,29.4175205 C10.2366002,29.4175205 10.2220802,29.4707605 10.2801602,29.4804405 C11.2481602,29.7079205 12.2161602,29.9644405 13.1841602,30.2354805 C13.6681602,30.3613205 14.1231202,30.4774805 14.5974402,30.5791205 L15.3089202,30.7340005 C15.404167,30.7583661 15.5013196,30.7745582 15.5993203,30.7824005 C16.5334403,32.3021605 17.4143203,33.8509606 18.2226003,35.4384806 C18.5807603,36.1354406 18.9260136,36.8372406 19.2583603,37.5438806 C19.6020003,38.2747206 19.8924003,38.9958806 20.2263603,39.7557606 C20.2602403,39.9396806 20.4925603,39.8767606 20.4393203,39.7170406 Z" id="Path" fill="#263238"></path>
                        <path d="M13.8859602,25.0034404 C13.7649602,24.3887604 13.6342802,23.7789204 13.4987602,23.1739204 C13.4987602,23.1303604 13.4261602,23.1739204 13.4358402,23.1739204 C13.5584536,23.7740804 13.6746136,24.3742404 13.7843202,24.9744004 C13.8735987,25.5789247 13.9947677,26.1783074 14.1473202,26.7700404 C14.1473202,26.7700404 14.1473202,26.7700404 14.1473202,26.7700404 C14.1004656,26.1759165 14.013143,25.5856801 13.8859602,25.0034404 Z" id="Path" fill="#263238"></path>
                        <path d="M10.1640002,24.8243604 C9.86485246,24.6784105 9.55784871,24.5491458 9.24440015,24.4371604 L8.76040014,24.2435604 L8.51356014,24.1467604 C8.4182965,24.1184921 8.3271674,24.0778094 8.24252013,24.0257604 C8.19412013,23.9918804 8.16508013,24.0741604 8.21348013,24.0838404 C8.30808151,24.1095992 8.39912304,24.1469912 8.48452014,24.1951604 L8.72652014,24.3064804 L9.21052015,24.5146004 C9.51847069,24.6550482 9.8334932,24.7794417 10.1543202,24.8872804 C10.1640002,24.8969604 10.1882002,24.8388804 10.1640002,24.8243604 Z" id="Path" fill="#263238"></path>
                        <path d="M23.9918804,28.3624005 C23.9918804,28.3624005 27.8638805,21.1266003 33.7638405,20.0037203 C39.6638006,18.8808403 43.2647607,24.9502004 43.2647607,24.9502004 C43.2647607,24.9502004 38.9668406,30.4436005 33.5557205,31.4019205 C28.1446005,32.3602405 23.9918804,28.3624005 23.9918804,28.3624005 Z" id="Path" fill="#FFC727"></path>
                        <path d="M37.7132806,23.2320004 C36.1763168,23.0262351 34.6175552,23.0458012 33.0862405,23.2900804 L33.3524405,23.1497204 L34.6592406,22.4769604 C35.5643206,21.9929604 36.4790806,21.5089603 37.4277206,21.1217603 C37.4712806,21.1217603 37.4277206,21.0443203 37.3986806,21.0636803 C36.4790806,21.4944403 35.5207606,21.8526004 34.5963206,22.2785204 C34.1123206,22.4914804 33.6815605,22.7141204 33.2314405,22.9512804 C32.9410405,23.1061604 32.6167605,23.2513604 32.3312005,23.4352804 C31.0366925,23.6965848 29.7787469,24.1142747 28.5850405,24.6791604 L29.3207205,23.8757204 C29.8676405,23.2755604 30.4097205,22.6463604 31.0147205,22.0946004 C31.0437605,22.0655604 31.0147205,22.0220004 30.9663205,22.0510404 C30.3468005,22.6124804 29.6982405,23.1303604 29.0980805,23.7111604 C28.8076805,23.9918804 28.5318005,24.2871204 28.2607605,24.5872004 C28.1252405,24.7372404 27.9897205,24.8921204 27.8638805,25.0712004 C23.770787,27.262499 20.8704212,31.1675202 19.9553203,35.7192006 C19.9553203,35.7578413 20.0085603,35.7821206 20.0182403,35.7192006 C20.8562204,32.958844 22.3509077,30.4427871 24.3742404,28.3866005 C27.8632948,24.8188842 32.745526,22.9672476 37.7229606,23.3239604 C37.7810406,23.3723604 37.7858806,23.2610404 37.7132806,23.2320004 Z" id="Path" fill="#263238"></path>
                        <path d="M43.2647607,24.9502004 C43.2647607,24.9502004 38.9668406,30.4436005 33.5557205,31.4019205 C29.4272005,32.1327605 26.0295204,29.9789605 24.6549604,28.9190005 L24.3548804,28.4350005 C24.3548804,28.4350005 27.1475604,26.0827604 32.4280005,24.7275604 C37.7084406,23.3723604 43.2647607,24.9502004 43.2647607,24.9502004 Z" id="Path" fill="#000000" opacity="0.1"></path>
                        <path d="M34.2865606,20.6668003 C33.8367699,20.9335889 33.4006235,21.2227378 32.9797605,21.5331604 C32.5679955,21.8425828 32.1870922,22.1910688 31.8423605,22.5737604 C31.8289952,22.5871257 31.8289952,22.6087951 31.8423605,22.6221604 C31.8557258,22.6355257 31.8773952,22.6355257 31.8907605,22.6221604 C32.2828005,22.2833604 32.6748405,21.9397204 33.0814005,21.6202804 C33.4772279,21.2965292 33.8926429,20.997495 34.3252806,20.7248803 C34.3640006,20.7006803 34.3252806,20.6474403 34.2865606,20.6668003 Z" id="Path" fill="#263238"></path>
                        <path d="M37.5245206,21.8913204 C37.3067206,21.9832804 37.0840806,22.0655604 36.8662806,22.1526804 L36.2080406,22.4285604 C36.1596406,22.4285604 36.1838406,22.5205204 36.2322406,22.5011604 L36.8904806,22.2349604 C37.1082806,22.1478404 37.3212406,22.0462004 37.5438806,21.9590804 C37.5826006,21.9397204 37.5632406,21.8768004 37.5245206,21.8913204 Z" id="Path" fill="#263238"></path>
                        <path d="M23.2320004,37.4761206 C23.2320004,37.4761206 24.2677604,44.6538407 29.6643605,47.1561208 C35.0609606,49.6584008 41.6482007,47.1561208 41.6482007,47.1561208 C41.6482007,47.1561208 39.0442806,31.6294005 23.2320004,37.4761206 Z" id="Path" fill="#FFC727"></path>
                        <path d="M37.9165606,42.4952007 C37.4325606,42.4419607 36.9195206,42.3548407 36.4258406,42.2628807 L35.6998406,42.1273607 L35.3223206,42.0499207 C35.1771206,41.9144007 35.0367606,41.7788807 34.8867206,41.6482007 C33.8632976,40.7394604 32.7564957,39.9292102 31.5810005,39.2282006 C30.9436718,38.8502276 30.284248,38.5108183 29.6062805,38.2118006 L29.7079205,38.2118006 L31.4842005,38.2892406 C32.6700005,38.3424806 33.8509606,38.3715206 35.0367606,38.4441206 C35.0803206,38.4441206 35.0803206,38.3812006 35.0367606,38.3812006 C33.8461206,38.2989206 32.6651605,38.1682406 31.4793605,38.0666006 L29.7514805,37.9117206 L28.8609205,37.8342806 L28.6334405,37.8342806 C28.3236805,37.7181206 28.0139205,37.6116406 27.6993205,37.5148406 C26.2274061,37.0092075 24.6440264,36.9220798 23.1255204,37.2631606 C21.7703204,37.6116406 20.4151203,38.5022006 20.0618003,39.9300006 C20.0594396,39.9517607 20.0719761,39.9723969 20.0923756,39.98033 C20.112775,39.9882631 20.1359597,39.9815185 20.1489203,39.9638806 C20.6329203,38.7684006 21.9832804,38.1682406 23.1836004,37.9165606 C23.9900072,37.7649465 24.8160236,37.7485898 25.6278004,37.8681606 C25.6827836,38.2390585 25.7735539,38.6037605 25.8988404,38.9571606 C26.0488804,39.4411606 26.1940804,39.9687206 26.3489604,40.4720807 C26.6538804,41.4788007 26.9926804,42.4806807 27.2927604,43.4874007 C27.2927604,43.5309607 27.3653604,43.4874007 27.3556804,43.4874007 C27.1040004,42.4806807 26.8716804,41.4642807 26.6490404,40.4527207 C26.5280404,39.9687206 26.4070404,39.4847206 26.2812004,38.9716806 C26.2123557,38.6259211 26.1218303,38.2848343 26.0101604,37.9504406 C26.483932,38.0332348 26.9525676,38.1431218 27.4137604,38.2795606 C28.2465887,38.5261011 29.0629577,38.825167 29.8579605,39.1749606 C29.9402405,39.6880006 30.0515605,40.1962007 30.1677205,40.6995607 C30.3177605,41.3336007 30.4823205,41.9628007 30.6807605,42.5823207 C30.6859035,42.5951878 30.6983637,42.603626 30.7122205,42.603626 C30.7260773,42.603626 30.7385375,42.5951878 30.7436805,42.5823207 C30.7436805,42.5436007 30.7436805,42.5048807 30.7436805,42.4661607 L30.7436805,42.4661607 C30.6226805,41.8805207 30.4920005,41.2948807 30.3661605,40.7092407 C30.2693605,40.2252407 30.1774005,39.7412406 30.0757605,39.2862806 C30.7436805,39.5912006 31.4019205,39.9203206 32.0408005,40.2833207 C32.0408005,40.4333607 32.0892005,40.5834007 32.1134005,40.7140807 C32.1521205,40.9609207 32.1956805,41.1980807 32.2392405,41.4497607 C32.3408805,42.0063607 32.4522005,42.5581207 32.5828805,43.1050407 C32.8286275,44.1636338 33.1389683,45.2061849 33.5121605,46.2268408 C33.5052573,46.2405403 33.5052573,46.2567012 33.5121605,46.2704008 L33.5460405,46.3042808 C33.5702405,46.3333208 33.6041205,46.3042808 33.5992805,46.2704008 C33.3476005,45.2056007 33.0668805,44.1504807 32.8297205,43.0856807 C32.7135605,42.5532807 32.5974005,42.0160407 32.4909205,41.4836407 C32.4376805,41.2174407 32.3844405,40.9464007 32.3360405,40.6802007 C32.3360405,40.6027607 32.3118405,40.5204807 32.2973205,40.4382007 C33.0249965,40.8660398 33.7279168,41.3346533 34.4027206,41.8418007 C35.56664,42.7164308 36.6443965,43.7001875 37.6213206,44.7796807 C37.6600406,44.8232407 37.7326406,44.7796807 37.6987606,44.7167607 C37.2965092,44.1709788 36.8668095,43.6459698 36.4113206,43.1437607 C36.1402806,42.8533607 35.8595606,42.5726407 35.5691606,42.2967607 L35.6611206,42.2967607 C35.9128006,42.3403207 36.1693206,42.3790407 36.4210006,42.4129207 C36.9050006,42.4806807 37.4228806,42.5290807 37.9214006,42.5871607 C37.9409085,42.5920007 37.9552806,42.5000407 37.9165606,42.4952007 Z" id="Path" fill="#263238"></path>
                        <path d="M34.1171606,44.9297207 L34.1171606,44.9297207 C34.112219,44.8677592 34.1025102,44.8062705 34.0881206,44.7458007 C34.0881206,44.6635207 34.0348806,44.5909207 34.0252006,44.5086407 L34.0252006,44.5086407 C33.9138806,44.0246407 33.8219205,43.5406407 33.7348005,43.0566407 C33.7348005,43.0227607 33.6767205,43.0566407 33.6767205,43.0566407 C33.7090304,43.7010615 33.848052,44.3356541 34.0881206,44.9345607 C34.0881206,44.9345607 34.1268406,44.9345607 34.1268406,44.9345607 L34.1171606,44.9297207 Z" id="Path" fill="#263238"></path>
                        <path d="M29.6014405,44.8184007 C29.6014405,44.8184007 29.6014405,44.7845207 29.5675605,44.7845207 C29.4175205,44.1504807 29.2723205,43.5116007 29.1416405,42.8727207 C29.0690405,42.5387607 29.0012805,42.1999607 28.9335205,41.8611607 C28.8996405,41.6820807 28.8657605,41.4981607 28.8367205,41.3190807 C28.8217661,41.1529532 28.7826333,40.9898997 28.7205605,40.8350807 C28.7154174,40.8222136 28.7029573,40.8137754 28.6891005,40.8137754 C28.6752436,40.8137754 28.6627835,40.8222136 28.6576405,40.8350807 C28.6518673,41.1628518 28.6975976,41.4894966 28.7931605,41.8030807 C28.8609205,42.1564007 28.9286805,42.5048807 29.0061205,42.8533607 C29.1610005,43.5600007 29.3400805,44.2666407 29.5385205,44.9636007 C29.5385205,45.0023207 29.6159605,44.9926407 29.6111205,44.9636007 C29.6062805,44.9345607 29.6014405,44.8668007 29.6014405,44.8184007 Z" id="Path" fill="#263238"></path>
                        <path d="M37.4228806,40.4285207 C36.4548806,40.2930007 35.4481606,40.1526407 34.4608006,40.0316407 C34.4220806,40.0316407 34.4027206,40.0897207 34.4608006,40.0945607 C35.4288006,40.2397607 36.4355206,40.3607607 37.4180406,40.4914407 C37.4470806,40.4962807 37.4664406,40.4333607 37.4228806,40.4285207 Z" id="Path" fill="#263238"></path>
                        <path d="M20.4490003,20.6329203 C20.4490003,20.6329203 17.1481203,6.1371201 32.7232405,0.271040004 C32.7232405,0.271040004 37.0356806,19.3600003 20.4490003,20.6329203 Z" id="Path" fill="#FFC727"></path>
                        <path d="M23.8128004,12.4146002 C23.8656904,12.37764 23.9206318,12.3437056 23.9773604,12.3129602 L24.8582404,11.8289602 L26.6684004,10.8174002 C27.8542005,10.1543202 29.0303205,9.46220015 30.2258005,8.80880014 C30.2645205,8.80880014 30.2258005,8.73136014 30.1919205,8.75556014 C28.9916005,9.40412015 27.7719205,10.0188002 26.5667604,10.6528402 L24.7808004,11.5966402 L24.0499604,11.9838402 C24.5678404,11.0158402 25.1244404,10.0478402 25.7342804,9.07984015 C26.5474004,7.84080013 27.4428004,6.65984011 28.3672405,5.49824009 C28.3867686,5.48713284 28.3972229,5.46496284 28.3933693,5.44282988 C28.3895157,5.42069693 28.3721836,5.40336485 28.3500507,5.39951125 C28.3279177,5.39565766 28.3057477,5.40611198 28.2946405,5.42564009 C26.9279934,6.75310028 25.7196287,8.23432156 24.6936804,9.83972016 C24.6936804,9.79132016 24.6936804,9.73808016 24.6936804,9.68968016 C24.6936804,9.33152015 24.7178804,8.96852015 24.7227204,8.61036014 C24.7227204,7.90372013 24.7227204,7.19224012 24.7227204,6.48560011 C24.7227204,6.4420401 24.6549604,6.4468801 24.6549604,6.48560011 C24.6259204,7.18256012 24.5436404,7.87952013 24.5000804,8.57648014 C24.5000804,8.92012015 24.4662004,9.26860015 24.4565204,9.61708016 C24.4565204,9.80584016 24.4323204,10.0188002 24.4565204,10.2269202 C24.1322404,10.7109202 23.8273204,11.2530002 23.5369204,11.7757202 C23.0130135,12.7141392 22.5474895,13.6839807 22.1430004,14.6797202 C22.1430004,14.3167202 22.1042804,13.9537202 22.0849204,13.5955602 C22.0365204,12.8018002 21.9397204,12.0128802 21.9058404,11.2191202 C21.9058404,11.1755602 21.8380804,11.1755602 21.8429204,11.2191202 C21.8429204,12.0128802 21.8187204,12.8066402 21.8429204,13.6004002 C21.8429204,13.9972802 21.8671204,14.3941602 21.8913204,14.7910402 L21.9203604,15.2314802 C21.4235068,16.5260308 21.0302308,17.85799 20.7442403,19.2148003 C20.473415,20.6635844 20.2795433,22.1257006 20.1634403,23.5950004 C20.1634403,23.5950004 20.1634403,23.5950004 20.1634403,23.5950004 C20.3278729,22.2718948 20.6047546,20.9652076 20.9910803,19.6891203 C21.1846803,19.0066803 21.3879603,18.3242403 21.6057604,17.6514803 C22.2543204,17.3465603 22.8738404,16.9642003 23.4982004,16.6157203 L25.4342004,15.5460803 C26.7361604,14.8346002 28.0332805,14.0940802 29.3739605,13.4794002 C29.4126805,13.4794002 29.3739605,13.4068002 29.3400805,13.4261602 C27.9800405,14.0408402 26.6103204,14.6216402 25.2793204,15.2944002 C24.6146271,15.6170669 23.9596137,15.9687736 23.3142804,16.3495203 C22.7722004,16.6544403 22.2156004,16.9593603 21.7025604,17.3175203 C21.8526004,16.8674003 22.0074804,16.4172803 22.1865604,15.9720003 C22.6684143,14.7595823 23.2111855,13.5722703 23.8128004,12.4146002 L23.8128004,12.4146002 Z" id="Path" fill="#263238"></path>
                        <path d="M22.5011604,9.09920015 C22.5011604,9.05564015 22.4285604,9.05564015 22.4334004,9.09920015 C22.4866404,9.92684016 22.5156804,10.7544802 22.6028004,11.5772802 C22.6028004,11.6256802 22.6802404,11.6256802 22.6754004,11.5772802 C22.6512004,10.7448002 22.5592404,9.92684016 22.5011604,9.09920015 Z" id="Path" fill="#263238"></path>
                        <path d="M29.9644405,11.8676802 C28.9964405,12.2597202 28.0284405,12.6324002 27.0362404,13.0389602 C27.0120404,13.0389602 27.0362404,13.0922002 27.0362404,13.0825202 C28.0042405,12.7146802 28.9722405,12.3129602 29.9692805,11.9306002 C30.0080005,11.9160802 30.0080005,11.8483202 29.9644405,11.8676802 Z" id="Path" fill="#263238"></path>
                        <path d="M31.4600005,5.17880008 C30.5087581,5.61922264 29.5843257,6.11537782 28.6915205,6.66468011 C28.6479605,6.69372011 28.6915205,6.76632011 28.7350805,6.73728011 C29.6401605,6.2097201 30.5597605,5.70152009 31.4987205,5.23688009 C31.5180805,5.21752008 31.4842005,5.16428008 31.4600005,5.17880008 Z" id="Path" fill="#263238"></path>
                        <rect id="Rectangle" fill="#37474F" x="8.75072014" y="51.9816008" width="22.4624404" height="23.6772804"></rect>
                        <rect id="Rectangle" fill="#263238" x="7.20676012" y="60.359641" width="1.14708002" height="40.5543607"></rect>
                        <rect id="Rectangle" fill="#263238" x="31.4890405" y="60.359641" width="1.14708002" height="40.5543607"></rect>
                        <rect id="Rectangle" fill="#263238" x="19.9553203" y="60.359641" width="1.14708002" height="40.5543607"></rect>
                        <rect id="Rectangle" fill="#263238" x="7.77788013" y="74.1391212" width="24.2822804" height="3.27668005"></rect>
                    </g>
                    <g id="freepik--speech-bubble--inject-90" transform="translate(190.696003, 40.172001)">
                        <path d="M18.7404803,10.5463602 C19.3641372,9.62227517 19.7008973,8.53454007 19.7084803,7.41972012 C19.7084803,3.45576006 15.3524802,0.242000004 9.98976016,0.242000004 C4.62704008,0.242000004 0.275880004,3.45576006 0.275880004,7.41972012 C0.275880004,11.3836802 4.63188008,14.5974402 9.98976016,14.5974402 C12.3752018,14.6363915 14.7150918,13.9420271 16.6931603,12.6082002 L20.0424403,13.4600402 L18.7404803,10.5463602 Z" id="Path" fill="#FFC727"></path>
                        <path d="M6.49528011,7.41972012 C6.49528011,7.97571623 6.0445562,8.42644014 5.48856009,8.42644014 C4.93256398,8.42644014 4.48184007,7.97571623 4.48184007,7.41972012 C4.48184007,6.86372401 4.93256398,6.4130001 5.48856009,6.4130001 C6.0445562,6.4130001 6.49528011,6.86372401 6.49528011,7.41972012 Z" id="Path" fill="#263238"></path>
                        <circle id="Oval" fill="#263238" cx="9.98976016" cy="7.41972012" r="1.00672002"></circle>
                        <circle id="Oval" fill="#263238" cx="14.4958002" cy="7.41972012" r="1.00672002"></circle>
                    </g>
                </g>
                <g id="Group-2" transform="translate(89.000000, 115.000000)">
                    <g id="Group" transform="translate(0.000000, 27.335000)">
                        <g id="Head/Front/Rad" transform="translate(32.003767, 0.000000)">
                            <g id="Head" stroke-width="1" transform="translate(23.588654, 13.426875)" fill="#B28B67">
                                <path d="M16.6620385,3.95613471 C19.1933679,8.63437061 18.8925801,20.5011039 15.6210625,21.3372352 C14.3162038,21.6707297 11.5362611,20.8536412 8.7071236,19.1626077 L10.4838462,31.6181251 L0,31.6181251 L3.60861679,14.9378764 C1.59606896,12.5953319 0.234001072,9.72460043 0.461628357,6.50789975 C1.11754752,-2.7611808 14.1307092,-0.722101177 16.6620385,3.95613471 Z"></path>
                            </g>
                            <path d="M41.6761796,16.8492993 C42.0147982,16.5165798 42.1995066,16.0416786 42.3592869,15.5907401 C42.5252189,15.1223037 42.6864467,14.6490402 42.7966123,14.1614681 C43.0167425,13.1872721 43.0188332,12.0669294 42.3179145,11.3104664 C41.7557884,10.7038565 40.9123378,10.4317764 40.1339011,10.3726454 C39.6152783,10.3332103 39.0826235,10.4052278 38.585471,10.5672777 C38.0922185,10.7280347 37.6670355,11.0484282 37.1888604,11.2472841 C37.1706067,10.1974504 36.9892354,9.09895858 36.4520775,8.20255512 C35.9351836,7.3400701 35.1110724,6.85607515 34.1725336,6.72802983 C33.2092277,6.59662283 32.2579838,6.8201311 31.395596,7.28253375 C31.1796875,7.39833913 30.9657893,7.5196611 30.7610983,7.65697258 C30.5896983,7.77195909 30.4115034,7.91043422 30.2103908,7.95719598 C29.9861997,8.00938813 29.8750692,7.88099802 29.7293611,7.71881877 C29.5585239,7.52866866 29.3660557,7.36118831 29.16237,7.21271435 C28.2617459,6.55632584 27.0800788,6.28644371 26.0366817,6.67988893 C25.5559334,6.86116076 25.0884532,7.16901258 24.7622987,7.59323005 C24.471566,7.97137535 24.2641812,8.57121877 23.862921,8.83467924 C23.6926467,8.94651957 23.5723893,8.7983473 23.4173533,8.68883428 C23.1844777,8.52428462 22.9623773,8.34271109 22.7266872,8.18264367 C22.3956275,7.95775626 22.0371871,7.78954323 21.6533363,7.70149322 C21.0914112,7.57258592 20.3148642,7.6027979 20.1541993,8.33253987 C20.0938896,8.60664565 20.140127,8.89980091 20.1596272,9.17597541 C20.1863644,9.55519816 20.2142677,9.93429162 20.2474782,10.3129541 C20.2726876,10.6004635 20.3045713,10.8781464 20.3592923,11.160484 C20.3884822,11.3109836 20.4798312,11.5915541 20.414737,11.7422692 C20.3333994,11.9306522 19.9579919,11.8235527 19.7976084,11.8301037 C19.480822,11.8430763 19.1627087,11.8981561 18.8698048,12.0323644 C18.6427993,12.136404 18.4041339,12.2894033 18.308322,12.5473902 C18.2494196,12.705863 18.2649393,12.8686457 18.2927621,13.0316869 C18.3261334,13.2273536 18.2879775,13.3311345 18.2630496,13.5285682 C17.8375851,13.320834 16.3632152,12.8592933 16.1777028,13.6153253 C16.1159457,13.867063 16.2565878,14.1515124 16.3638987,14.3638151 C16.552105,14.7361852 16.7988519,15.0765332 17.0511071,15.4011072 C17.5772886,16.078226 18.2054739,16.6622523 18.8813441,17.1617196 C18.0894784,17.5107735 17.8827771,18.540351 18.5683772,19.1537704 C18.8710914,19.4246007 19.2781011,19.4848953 19.6599416,19.4675698 C19.7996992,19.4612343 20.0011736,19.4079647 20.1111382,19.4320998 C20.1703221,19.4450724 20.2336874,19.494808 20.3156683,19.5003676 C20.8545551,19.5369582 21.4628784,19.4082233 21.9896631,19.2896596 C22.9283225,19.0783913 23.816965,18.6374516 24.5426509,17.9658925 C24.7288067,17.7936282 24.8825963,17.6944588 25.1331628,17.6970016 C25.3527301,17.6991996 25.5681562,17.7588909 25.7875225,17.7644075 C26.3679425,17.7791041 26.8912694,17.4977578 27.4302367,17.3104952 C27.4632461,18.0324364 27.6705907,18.8275586 27.96844,19.4770514 C28.211327,20.0066876 28.7185312,20.0836613 29.2169301,20.1301214 C30.810713,20.2788108 32.4101249,20.112882 34.0059182,20.11508 C32.4611469,20.4612894 30.8648711,20.6039882 29.3338102,21.0113973 C28.6417369,21.1955136 29.1702102,21.6580025 29.4661295,21.9786114 C29.9533913,22.5065667 30.3156915,23.1607141 30.5669817,23.8498574 C31.3226615,22.8731616 32.6583594,22.2296164 33.8417151,22.5296674 C35.1492283,22.8611372 36.0699154,24.6143367 35.2338226,25.8747491 C34.7484104,26.6064305 33.8718297,26.8888974 33.1424449,27.2032571 C33.7114463,27.7898262 33.8490729,28.656147 34.1915513,29.385889 C34.3604585,29.7457605 34.5975558,30.1526525 34.9752953,30.2780688 C35.1150528,30.3244857 35.2789342,30.3284508 35.3891803,30.4414117 C35.5257615,30.581266 35.5582885,30.7376269 35.732704,30.8578283 C36.4286774,31.3375996 37.5158191,31.3006212 38.1327064,30.6745309 C38.6905706,30.1083042 38.5454254,29.2122886 38.0795133,28.6382181 C38.8211611,28.3317023 40.1723385,27.9374813 39.8775851,26.7918398 C41.4846362,26.6860333 45.3865096,24.1017675 43.2295953,22.2133683 C44.4133129,21.550041 45.5008165,19.9289381 44.7404726,18.4999247 C44.1549866,17.3995365 42.7933556,16.9076546 41.6761796,16.8492993" id="hair" fill="#191847" transform="translate(30.577885, 18.840938) scale(-1, 1) translate(-30.577885, -18.840938) "></path>
                        </g>
                        <g id="Bottom/Sitting/Skinny-Jeans-1" transform="translate(0.000000, 81.363935)">
                            <g id="Objects/Seat/Cube" transform="translate(4.314655, 18.103370)" stroke-width="1">
                                <g id="Seat" transform="translate(23.792135, 0.000000)">
                                    <polygon id="Seat-Stuff" fill="#C5CFD6" points="11.9491203 0 45.3682241 0 49.7471912 52.7129169 0 52.7129169"></polygon>
                                    <polygon id="Seat-Stuff" fill-opacity="0.1" fill="#000000" points="11.9491203 0 22.2273916 0 28.3791606 52.7129169 0 52.7129169"></polygon>
                                </g>
                            </g>
                            <path d="M111.298534,8.94718709 L111.343584,8.91953811 C114.902632,6.83807346 120.814422,9.56672731 120.810347,12.6027105 C120.798097,21.7252981 112.464371,64.7200208 112.029256,67.4379444 C111.594141,70.1558681 106.932969,70.8737743 106.661534,67.4468516 C106.229634,61.9940389 105.427219,43.1175375 106.230068,34.3803042 C106.561499,30.7734178 106.918434,27.3383559 107.269826,24.2738531 C102.897689,32.1622927 96.1342934,43.4582382 86.9804837,58.1608586 L82.0114872,55.892936 C85.9134856,43.0498556 89.1130657,33.9829825 91.6102275,28.6923168 C95.8859746,19.6334128 99.8951866,11.8756691 101.582535,9.14306685 C104.236945,4.84434059 108.857526,6.34469006 111.298534,8.94718709 Z" id="Skin" fill="#B28B67"></path>
                            <path d="M90.0911664,53.1689088 L92.3130775,9.40885971 C93.9067672,1.84174253 107.373668,5.34906152 107.366823,9.40400478 C107.351276,18.6099813 101.806759,50.4133755 101.802128,53.1561434 L90.0911664,53.1689088 Z" id="LegLower" fill="#264B94" transform="translate(98.728995, 29.061105) rotate(20.000000) translate(-98.728995, -29.061105) "></path>
                            <g id="Accessories/Shoe/Flat-Sneaker" transform="translate(92.980819, 57.327337) rotate(30.000000) translate(-92.980819, -57.327337) translate(79.821121, 48.706685)" fill="#E4E4E4">
                                <path d="M1.20501655,10.9788228 C0.691817112,12.3346076 0.435217393,13.3445915 0.435217393,14.0087744 C0.435217393,14.7956083 0.56596288,15.9437946 0.827453854,17.4533334 C1.7379019,17.4533334 9.92025179,17.4533334 25.3745035,17.4533334 C26.0123943,15.3390834 25.6441668,14.1976679 24.2698208,14.0290868 C22.8954749,13.8605057 21.7537824,13.7082905 20.8447433,13.5724411 L9.38884273,8.45224839 C9.19472012,8.36548566 8.96701756,8.45251805 8.88025483,8.64664066 C8.87867343,8.65017887 8.87714555,8.65374076 8.87567171,8.65732511 L8.12255495,10.488884 L8.12255495,10.488884 C6.85027007,11.0840239 5.81640652,11.3815939 5.02096429,11.3815939 C4.35724993,11.3815939 3.4338321,11.1056032 2.25071082,10.5536217 L2.25071346,10.553616 C1.86532987,10.3738165 1.40715846,10.5404753 1.22735897,10.9258589 C1.21925487,10.9432293 1.21180221,10.9608962 1.20501655,10.9788228 Z" id="shoe"></path>
                            </g>
                            <g id="Accessories/Shoe/Flat-Sneaker" transform="translate(104.414656, 54.310109)" fill="#E4E4E4">
                                <path d="M1.20501655,10.9788228 C0.691817112,12.3346076 0.435217393,13.3445915 0.435217393,14.0087744 C0.435217393,14.7956083 0.56596288,15.9437946 0.827453854,17.4533334 C1.7379019,17.4533334 9.92025179,17.4533334 25.3745035,17.4533334 C26.0123943,15.3390834 25.6441668,14.1976679 24.2698208,14.0290868 C22.8954749,13.8605057 21.7537824,13.7082905 20.8447433,13.5724411 L9.38884273,8.45224839 C9.19472012,8.36548566 8.96701756,8.45251805 8.88025483,8.64664066 C8.87867343,8.65017887 8.87714555,8.65374076 8.87567171,8.65732511 L8.12255495,10.488884 L8.12255495,10.488884 C6.85027007,11.0840239 5.81640652,11.3815939 5.02096429,11.3815939 C4.35724993,11.3815939 3.4338321,11.1056032 2.25071082,10.5536217 L2.25071346,10.553616 C1.86532987,10.3738165 1.40715846,10.5404753 1.22735897,10.9258589 C1.21925487,10.9432293 1.21180221,10.9608962 1.20501655,10.9788228 Z" id="shoe"></path>
                            </g>
                            <path d="M122.005666,15.7038231 C122.005666,27.1550545 116.561963,53.8662718 116.558518,56.3877342 L104.846121,56.3967217 C106.560453,32.5625659 107.168343,20.5171061 106.669789,20.2603421 C105.921959,19.8751962 76.0137993,23.2434467 67.0438556,23.2434467 C54.1091524,23.2434467 48.7583247,15.0949332 48.3241382,-4.40536496e-13 L73.9473039,-4.40536496e-13 C79.1644105,0.557698843 106.377317,6.04103271 116.483651,7.9260056 C120.810345,8.73299476 122.005666,12.5493036 122.005666,15.7038231 Z" id="Leg-and-Butt" fill="#002060"></path>
                        </g>
                        <g id="Body/Jacket" transform="translate(8.649667, 35.488525)">
                            <path d="M29.4862557,40.2892407 L38.5069632,40.3248347 C32.9370926,58.3660797 29.9301901,67.9386513 29.4862557,69.0425495 C28.4874035,71.5263204 30.6011092,75.3090604 31.5050137,77.3418767 C28.5610269,78.6636735 28.8747119,73.7685202 25.1609518,75.5021304 C21.7712038,77.0844895 19.1926309,79.9516182 15.2762669,77.5269375 C14.794773,77.2288372 14.2671341,76.106436 15.5419764,75.2293388 C18.7180735,73.0441698 23.2950219,69.2197303 23.9134397,67.9608865 C24.7567629,66.244228 26.6143682,57.020346 29.4862557,40.2892407 L29.4862557,40.2892407 Z M83.7625038,38.601188 L95.9907159,50.5706074 C99.5486749,52.093393 102.463915,53.7748558 104.736438,55.6149957 C105.247494,56.2335294 105.803862,57.4186719 103.399368,56.8883376 C100.994874,56.3580033 98.4419359,55.9086756 97.9900157,56.6932765 C97.5380955,57.4778773 98.8697153,58.6801647 98.0345107,59.7070053 C97.4777077,60.3915658 95.6051351,58.214113 92.416793,53.1746471 L79.7010696,45.6524436 L83.7625038,38.601188 Z" id="Skin" fill="#B28B67"></path>
                            <path d="M52.6631206,3.99310962 L56.3256028,3.02783288 C64.1315105,18.5144533 76.5843598,32.1170583 93.6841507,43.8356478 L82.915289,59.5848095 C65.3310386,42.3073752 53.813569,23.902216 52.6631206,3.99310962 Z" id="Coat-Back" fill="#55A2AC" transform="translate(73.173636, 31.306321) rotate(5.000000) translate(-73.173636, -31.306321) "></path>
                            <path d="M38.8500002,49.3762502 L72.0883337,49.3762502 C64.3877756,30.5895169 60.5374966,14.6304097 60.5374966,1.49892882 L50.5111334,0 C42.631354,12.71586 40.4060835,28.3716583 38.8500002,49.3762502 Z" id="Shirt" fill="#DDE3E9"></path>
                            <path d="M50.9572799,-4.26325641e-14 C51.7404216,0.027058677 52.933247,0.0758102563 54.5357561,0.146254738 L54.5357561,0.146254738 L56.9584852,7.09323621 C57.2147562,15.5632307 58.7113401,32.6325551 61.4482367,58.3012094 L61.4482367,58.3012094 L39.6598351,58.300993 C39.7169525,60.0738918 39.8111334,61.8633526 39.9423779,63.6693753 L39.9423779,63.6693753 L23.7416668,63.6693753 C26.1650074,36.2369543 35.0147443,15.0138292 50.2908775,1.42108547e-14 L50.2908775,1.42108547e-14 L50.2986668,0.007 L50.3028001,-4.26325641e-14 Z" id="Coat-Front" fill="#5FC9D7"></path>
                            <path d="M45.7566669,58.4718753 L39.665421,58.4709063 C39.3988844,50.5222479 39.8764771,42.9061058 41.0981991,35.6224801 C41.7198033,46.6713756 43.2722064,54.2873703 45.7566669,58.4718753 Z" id="Shade" fill-opacity="0.1" fill="#000000"></path>
                            <polygon id="Light" fill-opacity="0.2" fill="#FFFFFF" points="44.5095382 45.0450002 55.2533336 40.0334285 55.2533336 45.0450002"></polygon>
                        </g>
                    </g>
                    <g id="Head/Front/Airy" transform="translate(188.457501, 22.522500) scale(-1, 1) translate(-188.457501, -22.522500) translate(159.005001, 0.000000)">
                        <g id="Head" stroke-width="1" transform="translate(23.588654, 13.426875)" fill="#B28B67">
                            <path d="M16.6620385,3.95613471 C19.1933679,8.63437061 18.8925801,20.5011039 15.6210625,21.3372352 C14.3162038,21.6707297 11.5362611,20.8536412 8.7071236,19.1626077 L10.4838462,31.6181251 L0,31.6181251 L3.60861679,14.9378764 C1.59606896,12.5953319 0.234001072,9.72460043 0.461628357,6.50789975 C1.11754752,-2.7611808 14.1307092,-0.722101177 16.6620385,3.95613471 Z"></path>
                        </g>
                        <path d="M34.275166,11.9911769 C32.8934254,11.7665067 29.173028,11.6120398 28.4869203,11.6121395 C28.048465,11.6121395 27.5733131,11.7114611 27.3136289,11.3122802 C27.1009686,10.9853966 27.1788738,10.4325465 27.1154066,10.0532099 C27.0417125,9.61254534 26.9370367,9.1775648 26.8311577,8.74368118 C26.5298639,7.50904247 26.0742634,6.33443546 25.4367838,5.23162716 C24.2406322,3.16262756 22.4883153,1.54197104 20.2760865,0.598914884 C17.8331499,-0.442365905 15.0687664,-0.680797466 12.4410429,-0.469589583 C9.6290339,-0.243623076 7.08352705,0.676796544 4.42853172,1.54296825 C1.89846556,2.36835429 -0.751516562,2.69324347 -3.39768864,2.29017347 C-6.06381329,1.88411186 -8.07832107,0.451328639 -10.3271462,-0.908558941 C-12.6293119,-2.30075594 -15.2602439,-3.21130324 -17.9818146,-3.00199005 C-20.5223082,-2.80653799 -22.8637775,-1.76645385 -24.9645125,-0.377049019 C-26.9299911,0.922906579 -28.5517641,2.48692189 -29.4673765,4.68815079 C-30.4523718,7.05601253 -30.4514694,9.65512596 -28.8317016,11.7477593 C-26.4839158,14.7810555 -22.1253318,15.5654565 -18.4991777,15.4874751 C-16.4017515,15.4425012 -14.341824,15.0628655 -12.3616066,14.3723014 C-9.72074851,13.4512835 -7.43863564,11.8902598 -4.96802613,10.6237106 C-3.80857123,10.0293768 -2.61011355,9.54124523 -1.35390372,9.18963097 C-0.134891892,8.84828792 1.06577159,8.69172684 2.16947962,9.42187986 C3.33705592,10.1943144 4.38331258,10.9530872 5.7190319,11.4366315 C7.00040805,11.900531 8.35768417,12.1600036 9.72288116,12.1495329 C12.3790797,12.12919 14.9974786,11.3085905 17.5772758,10.7589315 C19.6810187,10.3107878 21.9319494,9.86414 24.0767003,10.2949323 C24.9716583,10.4747282 26.2789026,10.8458877 26.6021543,11.7681023 C21.16172,12.7457614 19.0249952,19.4170586 20.5587362,24.3144289 C21.3865173,26.9577185 26.3624227,30.047696 28.2971202,28.6580788 C29.5228067,27.7777163 28.778689,26.6219598 28.2971202,25.8589987 C27.3748903,24.3978949 27.059359,22.5210566 28.7658552,21.5038084 C30.2378335,20.626468 31.7855173,22.7099186 31.8147945,22.707625 C32.2193604,22.6760137 35.7151617,20.7157389 38.1237052,17.855201 C40.4997422,17.9948563 40.8602214,16.4414357 40.2928703,15.1710296 C39.7255192,13.9006235 36.1842962,12.301806 34.275166,11.9911769 Z" id="hair" fill="#191847"></path>
                    </g>
                    <g id="Bottom/Standing/Shorts" transform="translate(191.922501, 133.402501) scale(-1, 1) translate(-191.922501, -133.402501) translate(127.050001, 81.620000)">
                        <polygon id="Leg" fill="#997659" points="55.2275865 9.9475983e-14 71.4639954 53.542259 79.3293169 99.0765014 85.496272 99.0765014 77.185287 9.9475983e-14"></polygon>
                        <path d="M49.41908,0 C50.5218962,29.397578 49.2240305,44.561381 48.9772071,47.2322788 C48.7303836,49.9031766 45.3505625,67.2214208 37.3492463,99.9731213 L43.9205978,97.6965991 C56.5659319,67.6584427 60.8750109,52.0470824 62.325335,48.1027136 C63.7756591,44.1583448 67.627648,28.124107 73.8813015,0 L49.41908,0 Z" id="Leg" fill="#B28B67"></path>
                        <g id="Accessories/Shoe/Flat-Sneaker" transform="translate(36.243104, 86.608261)" fill="#E4E4E4">
                            <path d="M1.20501655,10.9788228 C0.691817112,12.3346076 0.435217393,13.3445915 0.435217393,14.0087744 C0.435217393,14.7956083 0.56596288,15.9437946 0.827453854,17.4533334 C1.7379019,17.4533334 9.92025179,17.4533334 25.3745035,17.4533334 C26.0123943,15.3390834 25.6441668,14.1976679 24.2698208,14.0290868 C22.8954749,13.8605057 21.7537824,13.7082905 20.8447433,13.5724411 L9.38884273,8.45224839 C9.19472012,8.36548566 8.96701756,8.45251805 8.88025483,8.64664066 C8.87867343,8.65017887 8.87714555,8.65374076 8.87567171,8.65732511 L8.12255495,10.488884 L8.12255495,10.488884 C6.85027007,11.0840239 5.81640652,11.3815939 5.02096429,11.3815939 C4.35724993,11.3815939 3.4338321,11.1056032 2.25071082,10.5536217 L2.25071346,10.553616 C1.86532987,10.3738165 1.40715846,10.5404753 1.22735897,10.9258589 C1.21925487,10.9432293 1.21180221,10.9608962 1.20501655,10.9788228 Z" id="shoe"></path>
                        </g>
                        <g id="Accessories/Shoe/Flat-Sneaker" transform="translate(76.800862, 86.608261)" fill="#E4E4E4">
                            <path d="M1.20501655,10.9788228 C0.691817112,12.3346076 0.435217393,13.3445915 0.435217393,14.0087744 C0.435217393,14.7956083 0.56596288,15.9437946 0.827453854,17.4533334 C1.7379019,17.4533334 9.92025179,17.4533334 25.3745035,17.4533334 C26.0123943,15.3390834 25.6441668,14.1976679 24.2698208,14.0290868 C22.8954749,13.8605057 21.7537824,13.7082905 20.8447433,13.5724411 L9.38884273,8.45224839 C9.19472012,8.36548566 8.96701756,8.45251805 8.88025483,8.64664066 C8.87867343,8.65017887 8.87714555,8.65374076 8.87567171,8.65732511 L8.12255495,10.488884 L8.12255495,10.488884 C6.85027007,11.0840239 5.81640652,11.3815939 5.02096429,11.3815939 C4.35724993,11.3815939 3.4338321,11.1056032 2.25071082,10.5536217 L2.25071346,10.553616 C1.86532987,10.3738165 1.40715846,10.5404753 1.22735897,10.9258589 C1.21925487,10.9432293 1.21180221,10.9608962 1.20501655,10.9788228 Z" id="shoe"></path>
                        </g>
                        <polygon id="Bottom" fill="#69A1AC" points="53.0702589 0 59.9737072 27.2792174 81.0595643 27.2792174 77.9155771 0"></polygon>
                        <path d="M49.1870692,-3.55271368e-15 C46.9155927,6.86796813 46.4841272,15.9610406 47.8926726,27.2792174 L69.4099952,27.2792174 L75.326784,-3.55271368e-15 L49.1870692,-3.55271368e-15 Z" id="Bottom" fill="#89C5CC"></path>
                    </g>
                    <g id="Body/Turtle-Neck" transform="translate(191.345001, 76.230000) scale(-1, 1) rotate(8.000000) translate(-191.345001, -76.230000) translate(135.905001, 35.805000)">
                        <path d="M26.318627,29.2141443 L35.7710011,29.2497383 C28.5717719,52.6531309 24.7501901,64.9067763 24.3062557,66.0106744 C23.3074034,68.4944453 25.4211092,72.2771854 26.3250137,74.3100017 C23.3810269,75.6317985 23.6947118,70.7366451 19.9809518,72.4702554 C16.5912038,74.0526145 14.0126309,76.9197432 10.0962669,74.4950625 C9.61477297,74.1969622 9.08713406,73.074561 10.3619764,72.1974638 C13.5380735,70.0122948 18.1150219,66.1878553 18.7334397,64.9290115 C19.5767629,63.212353 22.1051586,51.3073972 26.318627,29.2141443 L26.318627,29.2141443 Z M86.114532,40.0468825 L98.3427441,52.0163019 C101.900703,53.5390875 104.815944,55.2205503 107.088466,57.0606903 C107.599522,57.679224 108.15589,58.8643664 105.751396,58.3340321 L105.269184,58.229387 C103.015848,57.7492716 100.763836,57.4066769 100.342044,58.138971 C99.8901237,58.9235719 101.221744,60.1258592 100.386539,61.1526999 C99.8297359,61.8372603 97.9571633,59.6598076 94.7688212,54.6203417 L82.0530978,47.0981382 L86.114532,40.0468825 Z" id="Skin" fill="#B28B67"></path>
                        <path d="M52.9875921,4.20121874 L56.6500743,3.235942 C64.3254926,23.499871 95.6613086,35.0287743 98.1884147,42.6338782 C99.1151713,45.4228708 97.1981448,47.0414331 98.3293603,47.8166619 L93.8066675,51.78963 C92.9043644,50.9030705 91.3110873,52.8085909 87.5563255,51.9016846 C83.8015637,50.9947783 55.139903,28.8022453 52.9875921,4.20121874 Z" id="Clothes-Back" fill="#191847" transform="translate(75.719113, 27.694566) rotate(5.000000) translate(-75.719113, -27.694566) "></path>
                        <path d="M48.2960057,-2.05861023 C48.2962461,-2.05859348 48.2964865,-2.05857667 48.2966762,-2.05783889 L60.2957598,-1.21594658 C61.1438603,-1.15571645 61.7833076,-0.420115935 61.7249181,0.428113311 L61.4008662,5.0634585 C60.9630458,32.6904303 76.8788334,39.734365 73.3346686,50.8134653 C70.4086156,59.9603408 42.4014648,69.7931935 37.5550002,60.8270966 C35.5930915,57.1975099 34.7030319,52.8077342 34.602134,48.0351033 C33.363616,51.7019827 32.383903,54.8585103 31.6632366,57.5049145 C30.4470867,61.9708145 25.80839,62.762342 25.6072823,64.4410826 L25.6005356,64.5543631 L19.2508787,62.7957065 C19.6815609,60.4064983 16.6881793,59.2430964 17.4907829,53.9053971 C21.0869192,29.9893666 30.7490902,12.6533884 46.4772961,1.89746254 L46.6533879,-0.629351238 C46.7117973,-1.47786206 47.4475452,-2.11774061 48.2960057,-2.05861023 Z" id="Clothes-Front" fill="#2F3676"></path>
                    </g>
                </g>
            </g>
        </g>
    </g>
</svg>